<svg xmlns="http://www.w3.org/2000/svg" xmlns:xlink="http://www.w3.org/1999/xlink" contentStyleType="text/css" height="676px" preserveAspectRatio="xMidYMid meet" style="width: 100%; height: 100%; background: rgb(255, 255, 255); max-width: 100%; position: absolute; top: 50%; left: 50%; transform: translate(-50%, -50%);" version="1.1" viewBox="0 0 711 676" width="711px" zoomAndPan="magnify"><defs/><g><rect fill="none" height="20.9531" style="stroke:none;stroke-width:1.0;" width="678.3943" x="15" y="12.7451"/><ellipse cx="239.6426" cy="48.6982" fill="#222222" rx="10" ry="10" style="stroke:#222222;stroke-width:1.0;"/><rect fill="#F1F1F1" height="33.9688" rx="12.5" ry="12.5" style="stroke:#181818;stroke-width:0.5;" width="202.3145" x="138.4854" y="78.6982"/><text fill="#000000" font-family="sans-serif" font-size="12" lengthAdjust="spacing" textLength="182.3145" x="148.4854" y="99.8369">Provide Name, Age, and Email</text><rect fill="#F1F1F1" height="33.9688" rx="12.5" ry="12.5" style="stroke:#181818;stroke-width:0.5;" width="218.7324" x="27.0586" y="338.5732"/><text fill="#000000" font-family="sans-serif" font-size="12" lengthAdjust="spacing" textLength="198.7324" x="37.0586" y="359.7119">Input Currency and Confirm Rate</text><rect fill="#F1F1F1" height="33.9688" rx="12.5" ry="12.5" style="stroke:#181818;stroke-width:0.5;" width="177.0371" x="47.9063" y="392.542"/><text fill="#000000" font-family="sans-serif" font-size="12" lengthAdjust="spacing" textLength="157.0371" x="57.9063" y="413.6807">Input Account Information</text><rect fill="#F1F1F1" height="33.9688" rx="12.5" ry="12.5" style="stroke:#181818;stroke-width:0.5;" width="133.6895" x="69.5801" y="446.5107"/><text fill="#000000" font-family="sans-serif" font-size="12" lengthAdjust="spacing" textLength="113.6895" x="79.5801" y="467.6494">Initiate Withdrawal</text><rect fill="#F1F1F1" height="33.9688" rx="12.5" ry="12.5" style="stroke:#181818;stroke-width:0.5;" width="159.4941" x="56.6777" y="500.4795"/><text fill="#000000" font-family="sans-serif" font-size="12" lengthAdjust="spacing" textLength="139.4941" x="66.6777" y="521.6182">Store Amount in Wallet</text><rect fill="#F1F1F1" height="33.9688" rx="12.5" ry="12.5" style="stroke:#181818;stroke-width:0.5;" width="230.8496" x="21" y="554.4482"/><text fill="#000000" font-family="sans-serif" font-size="12" lengthAdjust="spacing" textLength="210.8496" x="31" y="575.5869">Enter Account Number for Transfer</text><rect fill="#F1F1F1" height="33.9688" rx="12.5" ry="12.5" style="stroke:#181818;stroke-width:0.5;" width="142.0215" x="271.8496" y="230.6357"/><text fill="#000000" font-family="sans-serif" font-size="12" lengthAdjust="spacing" textLength="122.0215" x="281.8496" y="251.7744">Notify User of Errors</text><ellipse cx="239.6426" cy="653.417" fill="none" rx="11" ry="11" style="stroke:#222222;stroke-width:1.0;"/><ellipse cx="239.6426" cy="653.417" fill="#222222" rx="6" ry="6" style="stroke:#222222;stroke-width:1.0;"/><line style="stroke:#000000;stroke-width:1.5;" x1="15" x2="15" y1="12.7451" y2="664.417"/><rect fill="#F1F1F1" height="33.9688" rx="12.5" ry="12.5" style="stroke:#181818;stroke-width:0.5;" width="128.6738" x="539.6016" y="132.667"/><text fill="#000000" font-family="sans-serif" font-size="12" lengthAdjust="spacing" textLength="108.6738" x="549.6016" y="153.8057">Verify Information</text><polygon fill="#F1F1F1" points="547.0452,186.6357,660.8318,186.6357,672.8318,198.6357,660.8318,210.6357,547.0452,210.6357,535.0452,198.6357,547.0452,186.6357" style="stroke:#181818;stroke-width:0.5;"/><text fill="#000000" font-family="sans-serif" font-size="11" lengthAdjust="spacing" textLength="113.7866" x="547.0452" y="202.4438">Information Correct?</text><text fill="#000000" font-family="sans-serif" font-size="11" lengthAdjust="spacing" textLength="19.0083" x="516.0369" y="196.0415">yes</text><text fill="#000000" font-family="sans-serif" font-size="11" lengthAdjust="spacing" textLength="13.7017" x="672.8318" y="196.0415">no</text><rect fill="#F1F1F1" height="33.9688" rx="12.5" ry="12.5" style="stroke:#181818;stroke-width:0.5;" width="153.6992" x="423.8711" y="230.6357"/><text fill="#000000" font-family="sans-serif" font-size="12" lengthAdjust="spacing" textLength="133.6992" x="433.8711" y="251.7744">Fetch Exchange Rates</text><rect fill="#F1F1F1" height="33.9688" rx="12.5" ry="12.5" style="stroke:#181818;stroke-width:0.5;" width="151.8887" x="424.7764" y="284.6045"/><text fill="#000000" font-family="sans-serif" font-size="12" lengthAdjust="spacing" textLength="131.8887" x="434.7764" y="305.7432">Determine Best Rates</text><polygon fill="#F1F1F1" points="603.9385,598.417,615.9385,610.417,603.9385,622.417,591.9385,610.417,603.9385,598.417" style="stroke:#181818;stroke-width:0.5;"/><line style="stroke:#000000;stroke-width:1.5;" x1="417.8711" x2="417.8711" y1="12.7451" y2="664.417"/><line style="stroke:#000000;stroke-width:1.5;" x1="691.5334" x2="691.5334" y1="12.7451" y2="664.417"/><line style="stroke:#181818;stroke-width:1.0;" x1="239.6426" x2="239.6426" y1="58.6982" y2="78.6982"/><polygon fill="#181818" points="235.6426,68.6982,239.6426,78.6982,243.6426,68.6982,239.6426,72.6982" style="stroke:#181818;stroke-width:1.0;"/><line style="stroke:#181818;stroke-width:1.0;" x1="136.4248" x2="136.4248" y1="372.542" y2="392.542"/><polygon fill="#181818" points="132.4248,382.542,136.4248,392.542,140.4248,382.542,136.4248,386.542" style="stroke:#181818;stroke-width:1.0;"/><line style="stroke:#181818;stroke-width:1.0;" x1="136.4248" x2="136.4248" y1="426.5107" y2="446.5107"/><polygon fill="#181818" points="132.4248,436.5107,136.4248,446.5107,140.4248,436.5107,136.4248,440.5107" style="stroke:#181818;stroke-width:1.0;"/><line style="stroke:#181818;stroke-width:1.0;" x1="136.4248" x2="136.4248" y1="480.4795" y2="500.4795"/><polygon fill="#181818" points="132.4248,490.4795,136.4248,500.4795,140.4248,490.4795,136.4248,494.4795" style="stroke:#181818;stroke-width:1.0;"/><line style="stroke:#181818;stroke-width:1.0;" x1="136.4248" x2="136.4248" y1="534.4482" y2="554.4482"/><polygon fill="#181818" points="132.4248,544.4482,136.4248,554.4482,140.4248,544.4482,136.4248,548.4482" style="stroke:#181818;stroke-width:1.0;"/><line style="stroke:#181818;stroke-width:1.0;" x1="500.7207" x2="500.7207" y1="264.6045" y2="284.6045"/><polygon fill="#181818" points="496.7207,274.6045,500.7207,284.6045,504.7207,274.6045,500.7207,278.6045" style="stroke:#181818;stroke-width:1.0;"/><line style="stroke:#181818;stroke-width:1.0;" x1="535.0452" x2="500.7207" y1="198.6357" y2="198.6357"/><line style="stroke:#181818;stroke-width:1.0;" x1="500.7207" x2="500.7207" y1="198.6357" y2="230.6357"/><polygon fill="#181818" points="496.7207,220.6357,500.7207,230.6357,504.7207,220.6357,500.7207,224.6357" style="stroke:#181818;stroke-width:1.0;"/><line style="stroke:#181818;stroke-width:1.0;" x1="603.9385" x2="603.9385" y1="166.6357" y2="186.6357"/><polygon fill="#181818" points="599.9385,176.6357,603.9385,186.6357,607.9385,176.6357,603.9385,180.6357" style="stroke:#181818;stroke-width:1.0;"/><line style="stroke:#181818;stroke-width:1.0;" x1="239.6426" x2="239.6426" y1="112.667" y2="117.667"/><line style="stroke:#181818;stroke-width:1.0;" x1="239.6426" x2="603.9385" y1="117.667" y2="117.667"/><line style="stroke:#181818;stroke-width:1.0;" x1="603.9385" x2="603.9385" y1="117.667" y2="132.667"/><polygon fill="#181818" points="599.9385,122.667,603.9385,132.667,607.9385,122.667,603.9385,126.667" style="stroke:#181818;stroke-width:1.0;"/><line style="stroke:#181818;stroke-width:1.0;" x1="500.7207" x2="500.7207" y1="318.5732" y2="323.5732"/><line style="stroke:#181818;stroke-width:1.0;" x1="500.7207" x2="136.4248" y1="323.5732" y2="323.5732"/><line style="stroke:#181818;stroke-width:1.0;" x1="136.4248" x2="136.4248" y1="323.5732" y2="338.5732"/><polygon fill="#181818" points="132.4248,328.5732,136.4248,338.5732,140.4248,328.5732,136.4248,332.5732" style="stroke:#181818;stroke-width:1.0;"/><line style="stroke:#181818;stroke-width:1.0;" x1="672.8318" x2="684.8318" y1="198.6357" y2="198.6357"/><line style="stroke:#181818;stroke-width:1.0;" x1="684.8318" x2="684.8318" y1="198.6357" y2="216.6357"/><line style="stroke:#181818;stroke-width:1.0;" x1="684.8318" x2="342.8604" y1="216.6357" y2="216.6357"/><line style="stroke:#181818;stroke-width:1.0;" x1="342.8604" x2="342.8604" y1="216.6357" y2="230.6357"/><polygon fill="#181818" points="338.8604,220.6357,342.8604,230.6357,346.8604,220.6357,342.8604,224.6357" style="stroke:#181818;stroke-width:1.0;"/><line style="stroke:#181818;stroke-width:1.0;" x1="136.4248" x2="136.4248" y1="588.417" y2="610.417"/><line style="stroke:#181818;stroke-width:1.0;" x1="136.4248" x2="591.9385" y1="610.417" y2="610.417"/><polygon fill="#181818" points="581.9385,606.417,591.9385,610.417,581.9385,614.417,585.9385,610.417" style="stroke:#181818;stroke-width:1.0;"/><line style="stroke:#181818;stroke-width:1.0;" x1="342.8604" x2="342.8604" y1="264.6045" y2="592.417"/><line style="stroke:#181818;stroke-width:1.0;" x1="342.8604" x2="633.9385" y1="592.417" y2="592.417"/><line style="stroke:#181818;stroke-width:1.0;" x1="633.9385" x2="633.9385" y1="592.417" y2="610.417"/><line style="stroke:#181818;stroke-width:1.0;" x1="633.9385" x2="615.9385" y1="610.417" y2="610.417"/><polygon fill="#181818" points="625.9385,606.417,615.9385,610.417,625.9385,614.417,621.9385,610.417" style="stroke:#181818;stroke-width:1.0;"/><line style="stroke:#181818;stroke-width:1.0;" x1="603.9385" x2="603.9385" y1="622.417" y2="627.417"/><line style="stroke:#181818;stroke-width:1.0;" x1="603.9385" x2="239.6426" y1="627.417" y2="627.417"/><line style="stroke:#181818;stroke-width:1.0;" x1="239.6426" x2="239.6426" y1="627.417" y2="642.417"/><polygon fill="#181818" points="235.6426,632.417,239.6426,642.417,243.6426,632.417,239.6426,636.417" style="stroke:#181818;stroke-width:1.0;"/><text fill="#000000" font-family="sans-serif" font-size="18" lengthAdjust="spacing" textLength="41.0273" x="195.9219" y="29.4531">User</text><text fill="#000000" font-family="sans-serif" font-size="18" lengthAdjust="spacing" textLength="67.1221" x="521.1412" y="29.4531">System</text><!--SRC=[LP31JiCm38RlUGeVDuadQ0-eb2BjKaqCs3capXgfiIV71IhruKc3nE1YoVv___hizJMXh2Qf5JNLKVWZ30YzZNW7pIKNImDqqOQfDkjfIOfnDTKRIl0B7CYpHAk1gJR1m-xF05eMGQVtUz0H2NOBfhq1g9vGtGZTbnijNH2UhMAgD-4H5IK6GdZ0f3TX_K7CZWDTPuLspi7abeBMClaWiRZhcwTnZcVI_uH53Hgo5Sv1nq7ifvtA_AGi24qiIu7WRAS9jKWTPQpVm7wExxdDgV0Ybf97gGrE2M57NExhMRVVRD307ZeHbdm7qX1y_ZDVlm40]--></g></svg>
